<?xml version="1.0" encoding="UTF-8"?>
<svg id="Layer_2" data-name="Layer 2" xmlns="http://www.w3.org/2000/svg" viewBox="0 0 178.27 171.2">
  <defs>
    <style>
      .cls-1 {
        fill: #fff;
      }
    </style>
  </defs>
  <g id="Layer_1-2" data-name="Layer 1">
    <path class="cls-1" d="m78.55,171.18c-.37-1.3-.36-33.13-.02-34.32,7.63,0,15.27.01,22.9,0,2.56,0,5.12-.09,7.63-.75,3.26-.85,6.01-2.46,7.93-5.28,1.44-2.12,2.24-4.52,2.55-7.03.42-3.37.43-6.77-.4-10.09-1.35-5.39-4.66-8.87-10.12-10.26-2.38-.6-4.79-.72-7.22-.73-7.5-.03-15.01,0-22.51,0-.32,0-.64,0-1.12,0-.05-.45-.14-.88-.14-1.32,0-10.57,0-21.13,0-31.7,0-.35.07-.71.12-1.13.42-.02.77-.05,1.13-.05,7.32,0,14.64.06,21.96-.03,2.46-.03,4.95-.23,7.36-.72,5.36-1.09,8.8-4.39,10.34-9.66.69-2.35.87-4.77.88-7.2.04-4.94.01-9.88.01-14.82,0-.27,0-.55-.02-.82-.03-.61-.38-.9-.98-.91-.37,0-.73-.01-1.1-.01-27.09,0-54.18,0-81.27,0-.09,0-.18,0-.27,0-1.78.01-1.85.07-1.85,1.86,0,11.62,0,23.24,0,34.86,0,17.43,0,34.86,0,52.29q0,2.27-2.28,2.27c-10.02,0-20.04,0-30.06,0-1.99,0-2,0-2-1.96C0,83.07,0,42.49,0,1.91,0,1.69,0,1.46,0,1.23.07.18.19.06,1.23.01c.41-.02.82,0,1.24,0,49.74,0,99.48,0,149.22,0,2.51,0,2.48-.18,2.48,2.46,0,15.83,0,31.66,0,47.48,0,5.4-.27,10.79-1.26,16.12-.27,1.43-.12,1.61,1.34,1.61,7,.01,14,0,21,.01.59,0,1.19,0,1.78.08.92.14,1.16.44,1.23,1.35.02.32.01.64.01.96,0,10.02,0,20.04,0,30.05,0,2.21-.22,2.45-2.42,2.46-7.09.01-14.19,0-21.28,0-2.11,0-2.16.05-1.76,2.07.94,4.78,1.27,9.61,1.31,14.46.05,6.24-.45,12.43-1.9,18.52-1.06,4.47-2.63,8.76-4.94,12.75-1.91,3.3-4.23,6.29-7.05,8.89-5.86,5.4-12.89,8.43-20.55,10.15-5.61,1.26-11.32,1.66-17.04,1.71-8.01.07-16.01.02-24.09.02Z"/>
  </g>
</svg>